<svg xmlns="http://www.w3.org/2000/svg" data-name="Layer 1" viewBox="0 0 331.353 77.912"><path d="M.002 72.607 0 1.278A1.12 1.12 0 0 1 1.125.164h11.637a1.12 1.12 0 0 1 1.126 1.114l.002 71.329a1.12 1.12 0 0 1-1.125 1.114H1.127a1.12 1.12 0 0 1-1.125-1.114Z" class="the-key_svg__logo-k-line" fill="#12263F"></path><path d="m62.155 63.699-25.971-25.97a1.115 1.115 0 0 1-.252-1.163c.005-.014.007-.029.013-.043a1.135 1.135 0 0 1 .238-.364l25.971-25.973a1.124 1.124 0 0 0-.008-1.59L53.883.332a1.124 1.124 0 0 0-1.59-.008l-27.537 27.54-.02.016-8.263 8.263a1.134 1.134 0 0 0-.25.38c-.006.013-.008.028-.013.042a1.115 1.115 0 0 0 .255 1.168l.005.005.005.005 8.263 8.263.007.006 27.55 27.547a1.124 1.124 0 0 0 1.59-.008l8.263-8.263a1.124 1.124 0 0 0 .007-1.59Z" class="the-key_svg__logo-k" fill="#ee316e"></path><path d="M100.725 62.73h7.52a.598.598 0 0 0 .599-.598V20.789h13.835a.598.598 0 0 0 .597-.597v-6.878a.598.598 0 0 0-.597-.598H86.292a.598.598 0 0 0-.598.598v6.878a.598.598 0 0 0 .598.597h13.834v41.343a.598.598 0 0 0 .598.598Zm35.843-19.505a9.572 9.572 0 0 1 2.215-6.752 7.351 7.351 0 0 1 5.645-2.394 6.76 6.76 0 0 1 5.108 1.894q1.822 1.893 1.822 6.466v19.693a.598.598 0 0 0 .598.598h7.306a.598.598 0 0 0 .598-.598v-20.98q0-15.074-12.717-15.075a12.818 12.818 0 0 0-10.575 4.93V13.314a.598.598 0 0 0-.597-.598h-7.308a.598.598 0 0 0-.597.598v48.818a.598.598 0 0 0 .597.598h7.308a.598.598 0 0 0 .597-.598Zm37.053 18.076a17.697 17.697 0 0 0 9.181 2.43 17.329 17.329 0 0 0 10.253-2.859 15.015 15.015 0 0 0 5.383-6.833.596.596 0 0 0-.384-.785l-6.084-1.867a.59.59 0 0 0-.714.316 8.225 8.225 0 0 1-2.774 3.31 9.374 9.374 0 0 1-5.68 1.644 9.686 9.686 0 0 1-8.36-4.573 9.93 9.93 0 0 1-1.5-4.358h25.893a.6.6 0 0 0 .595-.531 23.143 23.143 0 0 0 .144-3.74l-.005.01a20.667 20.667 0 0 0-2.049-8.6 15.511 15.511 0 0 0-5.895-6.466 16.803 16.803 0 0 0-8.894-2.323 17.368 17.368 0 0 0-9.11 2.466 17.887 17.887 0 0 0-6.502 6.752 19.3 19.3 0 0 0-2.394 9.574 19.587 19.587 0 0 0 2.394 9.717 17.614 17.614 0 0 0 6.502 6.716Zm2.572-25.829a9.406 9.406 0 0 1 6.609-2.322 9.184 9.184 0 0 1 4.894 1.25 8.824 8.824 0 0 1 3.108 3.109 8.693 8.693 0 0 1 1.215 3.644h-19.006a10.088 10.088 0 0 1 3.18-5.68Zm81.995-22.904h-9.66a.598.598 0 0 0-.438.192l-19.268 20.827v-20.42a.598.598 0 0 0-.598-.599h-7.454a.598.598 0 0 0-.599.598v48.94a.598.598 0 0 0 .599.6h7.454a.598.598 0 0 0 .598-.6V45.669l5.504-5.933 15.407 22.686a.598.598 0 0 0 .495.262h9.407a.598.598 0 0 0 .491-.939l-19.794-28.516 18.294-19.655a.598.598 0 0 0-.438-1.006Zm65.184 14.37a.598.598 0 0 0-.599.598v17.632q0 4.362-2.252 6.72a7.78 7.78 0 0 1-5.897 2.36 7.002 7.002 0 0 1-5.291-1.93q-1.859-1.93-1.858-6.506V27.536a.598.598 0 0 0-.599-.598h-7.382a.598.598 0 0 0-.599.598v19.706q0 7.58 3.468 11.296 3.466 3.719 9.544 3.717a14.007 14.007 0 0 0 6.29-1.25 14.47 14.47 0 0 0 4.58-3.78l-.004.312v3.79q0 4.43-2.252 6.826a8.08 8.08 0 0 1-6.183 2.395q-6.116 0-7.452-5.103a.594.594 0 0 0-.696-.428l-6.805 1.399a.598.598 0 0 0-.457.751 15.061 15.061 0 0 0 5.08 7.635q3.895 3.11 10.33 3.11 8.006 0 12.51-4.54 4.505-4.54 4.505-12.118V27.536a.598.598 0 0 0-.599-.598Z" class="the-key_svg__logo-text" fill="#12263F"></path><path d="M267.934 61.206a17.707 17.707 0 0 0 9.186 2.43 17.34 17.34 0 0 0 10.26-2.86 15.024 15.024 0 0 0 5.385-6.836.596.596 0 0 0-.384-.786l-6.087-1.868a.591.591 0 0 0-.715.316 8.23 8.23 0 0 1-2.775 3.313 9.38 9.38 0 0 1-5.684 1.644 9.691 9.691 0 0 1-8.364-4.575 9.937 9.937 0 0 1-1.501-4.361h25.908a.601.601 0 0 0 .595-.532 23.156 23.156 0 0 0 .144-3.742l-.005.01a20.679 20.679 0 0 0-2.05-8.605 15.52 15.52 0 0 0-5.898-6.47 16.813 16.813 0 0 0-8.9-2.323 17.378 17.378 0 0 0-9.115 2.466 17.897 17.897 0 0 0-6.506 6.756 19.311 19.311 0 0 0-2.395 9.58 19.598 19.598 0 0 0 2.395 9.723 17.624 17.624 0 0 0 6.506 6.72Zm2.574-25.844a9.411 9.411 0 0 1 6.612-2.324 9.19 9.19 0 0 1 4.898 1.252 8.83 8.83 0 0 1 3.109 3.11 8.697 8.697 0 0 1 1.216 3.645h-19.017a10.093 10.093 0 0 1 3.182-5.683Z" class="the-key_svg__logo-text" fill="#12263F"></path></svg>
